<svg width="121" height="53" viewBox="0 0 121 53" fill="none" xmlns="http://www.w3.org/2000/svg">
<g clip-path="url(#clip0_4_2312)">
<path d="M0.333313 28.1757C0.333313 19.3759 7.26397 13.1018 17.1205 13.1018C20.046 13.1018 23.2389 13.6468 25.03 14.4592V19.9546H24.8295L17.9767 15.0489C17.6231 14.9262 16.8854 14.8469 16.186 14.8469C11.0018 14.8469 7.34143 19.6765 7.34143 26.3402C7.34143 33.7827 11.9027 39.5782 17.6987 39.5782C18.0913 39.5717 18.4825 39.5308 18.868 39.4561L18.7564 39.4099V27.0521L16.9989 24.905V24.7049H27.2436V24.905L25.486 27.0521V41.4253H25.2859L20.8468 40.0568C19.134 40.9135 16.4862 41.5364 14.1057 41.5364C5.94028 41.5364 0.333313 36.1184 0.333313 28.1757ZM31.9828 24.4043L29.9136 22.3355V22.1778L37.2781 20.2325H37.6673L37.9439 24.4043H38.1772C39.8573 21.4451 41.3368 20.2325 43.2055 20.2325C43.9843 20.2325 44.6519 20.4663 44.9968 20.778V27.0853H44.7967L40.8606 24.437C40.7436 24.4124 40.6242 24.4011 40.5046 24.4033C39.6927 24.4033 38.5244 25.1821 38.1352 26.1166V38.888L40.1925 40.7585V40.9586H30.2253V40.7585L31.9828 38.8894V24.4043ZM46.6672 40.9466V40.7908L48.4248 38.8774V24.4043L46.356 22.3798V22.1778L54.1876 20.2307H54.5767V38.8885L56.3347 40.8019V40.9577H46.6672V40.9466ZM48.1453 14.0474C48.1453 12.134 49.4363 10.9657 51.4941 10.9657C53.5518 10.9657 54.8422 12.134 54.8422 14.0474C54.8422 15.9166 53.5633 17.0845 51.4941 17.0845C49.4248 17.0845 48.1453 15.9166 48.1453 14.0474ZM59.1937 40.9466V40.7465L60.9513 38.8774V23.0363H58.1812V22.8805L60.9843 20.4663C61.8411 14.8151 65.3121 10.9657 69.5505 10.9657C70.6071 10.9657 71.8557 11.1995 72.3537 11.4775L71.7309 16.5837H71.5305L65.9577 14.1253C64.7451 14.2475 63.6981 16.2278 63.6981 18.019C63.6981 20.3216 65.4561 21.601 68.4471 21.601H73.6311C73.9431 15.6072 77.2911 10.9657 81.4629 10.9657C82.4421 10.9657 83.6103 11.1995 84.1551 11.4775L83.4879 16.5395H83.2875L78.3387 14.2014C77.2041 14.3125 76.3143 15.9922 76.3143 17.8282C76.3143 20.3179 77.9499 21.6088 81.1095 21.6088H93.0243L92.7117 23.8376V38.9604L94.4697 40.7959V40.9517H84.7803V40.7959L86.5713 38.8825V23.0363H79.7517V38.8885L82.0881 40.7585V40.9586H71.8065V40.7585L73.5975 38.8451V23.0363H67.0923V38.8885L69.4281 40.7585V40.9586H59.1928L59.1937 40.9466ZM86.3043 14.0474C86.3043 12.134 87.5835 10.9657 89.6529 10.9657C91.7553 10.9657 93.0459 12.134 93.0459 14.0474C93.0459 15.9166 91.7547 17.0845 89.6529 17.0845C87.5835 17.0845 86.3043 15.9166 86.3043 14.0474ZM105.261 38.8885L107.018 40.7585V40.9586H97.3509V40.7585L99.1089 38.8894V24.4121L97.0395 22.3433V22.1428L104.404 20.2294H104.793L105.07 23.8892H105.337C107.472 21.4309 109.775 20.2294 112.345 20.2294C115.816 20.2294 118.23 22.4885 118.23 25.6805V38.8853L119.988 40.7544V40.9545H110.287V40.7544L112.078 38.7631V26.905C112.078 24.9916 110.91 23.8238 109.041 23.8238C107.796 23.8238 106.551 24.324 105.26 25.3365L105.261 38.8885Z" fill="#A0A8B4" fill-opacity="0.8" style="fill:#A0A8B4;fill:color(display-p3 0.6275 0.6588 0.7059);fill-opacity:0.8;"/>
</g>
<defs>
<clipPath id="clip0_4_2312">
<rect width="120" height="52" fill="white" style="fill:white;fill-opacity:1;" transform="translate(0.333313 0.5)"/>
</clipPath>
</defs>
</svg>
