<svg width="141" height="63" viewBox="0 0 141 63" fill="none" xmlns="http://www.w3.org/2000/svg">
<g clip-path="url(#clip0_4_2301)">
<path d="M74.1168 20.4278C74.1168 22.0023 72.8484 23.2706 71.2734 23.2706C69.6991 23.2706 68.4308 22.0023 68.4308 20.4278C68.4308 18.8533 69.6554 17.5849 71.2734 17.5849C72.8918 17.6287 74.1168 18.897 74.1168 20.4278ZM62.3952 26.1572C62.3952 26.4196 62.3952 26.857 62.3952 26.857C62.3952 26.857 61.0394 25.1076 58.1528 25.1076C53.3855 25.1076 49.6679 28.7377 49.6679 33.7673C49.6679 38.7533 53.3417 42.4272 58.1528 42.4272C61.0831 42.4272 62.3952 40.634 62.3952 40.634V41.3775C62.3952 41.7274 62.6576 41.9898 63.0075 41.9898H66.5501V25.5449C66.5501 25.5449 63.3137 25.5449 63.0075 25.5449C62.6576 25.5449 62.3952 25.8511 62.3952 26.1572ZM62.3952 36.6977C61.7391 37.6599 60.4271 38.4909 58.8526 38.4909C56.0534 38.4909 53.9103 36.7414 53.9103 33.7673C53.9103 30.7933 56.0534 29.0439 58.8526 29.0439C60.3833 29.0439 61.7829 29.9186 62.3952 30.8371V36.6977ZM69.1743 25.5449H73.3727V41.9898H69.1743V25.5449ZM131.892 25.1076C129.006 25.1076 127.65 26.857 127.65 26.857V17.6287H123.451V41.9898C123.451 41.9898 126.688 41.9898 126.993 41.9898C127.343 41.9898 127.606 41.6836 127.606 41.3775V40.634C127.606 40.634 128.962 42.4272 131.849 42.4272C136.616 42.4272 140.333 38.7533 140.333 33.7673C140.333 28.7814 136.616 25.1076 131.892 25.1076ZM131.193 38.4472C129.574 38.4472 128.306 37.6161 127.65 36.654V30.7933C128.306 29.9186 129.705 29.0001 131.193 29.0001C133.991 29.0001 136.135 30.7496 136.135 33.7236C136.135 36.6977 133.991 38.4472 131.193 38.4472ZM121.265 32.2366V42.0336H117.065V32.7177C117.065 30.006 116.191 28.9126 113.829 28.9126C112.561 28.9126 111.248 29.5687 110.417 30.5309V41.9898H106.219V25.5449H109.543C109.893 25.5449 110.155 25.8511 110.155 26.1572V26.857C111.38 25.5887 112.998 25.1076 114.616 25.1076C116.454 25.1076 117.984 25.6324 119.209 26.6821C120.696 27.9067 121.265 29.4812 121.265 32.2366ZM96.0282 25.1076C93.1421 25.1076 91.7862 26.857 91.7862 26.857V17.6287H87.5876V41.9898C87.5876 41.9898 90.8237 41.9898 91.1296 41.9898C91.4796 41.9898 91.7421 41.6836 91.7421 41.3775V40.634C91.7421 40.634 93.098 42.4272 95.9848 42.4272C100.752 42.4272 104.47 38.7533 104.47 33.7673C104.513 28.7814 100.796 25.1076 96.0282 25.1076ZM95.3289 38.4472C93.7105 38.4472 92.4421 37.6161 91.7862 36.654V30.7933C92.4421 29.9186 93.8414 29.0001 95.3289 29.0001C98.1275 29.0001 100.271 30.7496 100.271 33.7236C100.271 36.6977 98.1275 38.4472 95.3289 38.4472ZM83.9574 25.1076C85.2258 25.1076 85.8817 25.3262 85.8817 25.3262V29.2188C85.8817 29.2188 82.3824 28.0379 80.1956 30.5309V42.0336H75.997V25.5449C75.997 25.5449 79.2338 25.5449 79.5397 25.5449C79.8897 25.5449 80.1522 25.8511 80.1522 26.1572V26.857C80.9397 25.9385 82.6449 25.1076 83.9574 25.1076ZM40.3521 40.5027C40.1334 39.9779 39.9147 39.4093 39.696 38.9282C39.3461 38.141 38.9962 37.3975 38.6901 36.6977L38.6464 36.654C35.6285 30.0935 32.3921 23.4456 28.9806 16.8851L28.8494 16.6227C28.4995 15.9667 28.1496 15.2669 27.7997 14.5671C27.3624 13.7799 26.925 12.9489 26.2252 12.1616C24.8257 10.4122 22.8138 9.44995 20.6707 9.44995C18.4839 9.44995 16.5158 10.4122 15.0725 12.0741C14.4164 12.8614 13.9353 13.6924 13.4979 14.4796C13.1481 15.1794 12.7982 15.8792 12.4483 16.5352L12.317 16.7976C8.94942 23.3581 5.66916 30.006 2.65135 36.5665L2.60761 36.654C2.30146 37.3538 1.95157 38.0972 1.60168 38.8845C1.383 39.3656 1.16432 39.8904 0.945635 40.459C0.377062 42.0772 0.202117 43.6081 0.420799 45.1826C0.901899 48.4628 3.08872 51.2182 6.10652 52.4428C7.24366 52.9239 8.42456 53.1426 9.64914 53.1426C9.99907 53.1426 10.4364 53.0988 10.7863 53.055C12.2296 52.8801 13.7166 52.399 15.16 51.568C16.9531 50.5621 18.6588 49.1188 20.5833 47.0194C22.5076 49.1188 24.2571 50.5621 26.0065 51.568C27.4499 52.399 28.9369 52.8801 30.3802 53.055C30.7301 53.0988 31.1674 53.1426 31.5173 53.1426C32.7419 53.1426 33.9666 52.9239 35.06 52.4428C38.1215 51.2182 40.2646 48.419 40.7457 45.1826C41.0956 43.6517 40.9207 42.121 40.3521 40.5027ZM20.627 42.777C18.2652 39.803 16.7345 37.0038 16.2096 34.6421C15.9909 33.6361 15.9472 32.7614 16.0784 31.9742C16.1659 31.2744 16.4283 30.6621 16.7782 30.1373C17.6092 28.9564 19.0088 28.2128 20.627 28.2128C22.2452 28.2128 23.6885 28.9126 24.4758 30.1373C24.8257 30.6621 25.0881 31.2744 25.1756 31.9742C25.3068 32.7614 25.2631 33.6799 25.0444 34.6421C24.5195 36.9601 22.9888 39.7593 20.627 42.777ZM38.0778 44.8326C37.7716 47.1069 36.2409 49.0751 34.0978 49.9498C33.0481 50.3871 31.911 50.5184 30.7738 50.3871C29.6804 50.256 28.587 49.906 27.4499 49.25C25.8753 48.3753 24.3008 47.0194 22.4639 45.0076C25.3505 41.4649 27.1 38.2285 27.756 35.3418C28.0621 33.9861 28.1059 32.7614 27.9747 31.6243C27.7997 30.5309 27.4061 29.5249 26.7938 28.6502C25.438 26.6821 23.1637 25.5449 20.627 25.5449C18.0903 25.5449 15.816 26.7258 14.4602 28.6502C13.8479 29.5249 13.4542 30.5309 13.2793 31.6243C13.1043 32.7614 13.1481 34.0298 13.4979 35.3418C14.154 38.2285 15.9472 41.5087 18.7901 45.0513C16.9969 47.0632 15.3786 48.419 13.8041 49.2937C12.667 49.9498 11.5736 50.2997 10.4802 50.4309C9.29928 50.5621 8.16213 50.3871 7.15619 49.9935C5.01311 49.1188 3.48234 47.1507 3.17619 44.8764C3.04498 43.783 3.13245 42.6896 3.56981 41.4649C3.70103 41.0276 3.91971 40.5902 4.13839 40.0654C4.44454 39.3656 4.79443 38.6221 5.14432 37.8786L5.18806 37.7911C8.20588 31.2744 11.4423 24.6264 14.81 18.1535L14.9413 17.891C15.2911 17.235 15.6411 16.5352 15.9909 15.8792C16.3409 15.1794 16.7345 14.5234 17.2156 13.9548C18.134 12.9051 19.3586 12.3365 20.7145 12.3365C22.0703 12.3365 23.2949 12.9051 24.2133 13.9548C24.6944 14.5234 25.0881 15.1794 25.438 15.8792C25.7878 16.5352 26.1378 17.235 26.4876 17.891L26.6189 18.1535C29.9428 24.6702 33.1793 31.3181 36.1971 37.8348V37.8786C36.547 38.5784 36.8532 39.3656 37.203 40.0654C37.4217 40.5902 37.6404 41.0276 37.7716 41.4649C38.1215 42.6021 38.2528 43.6955 38.0778 44.8326Z" fill="#A0A8B4" fill-opacity="0.8" style="fill:#A0A8B4;fill:color(display-p3 0.6275 0.6588 0.7059);fill-opacity:0.8;"/>
</g>
<defs>
<clipPath id="clip0_4_2301">
<rect width="140" height="63" fill="white" style="fill:white;fill-opacity:1;" transform="translate(0.333313)"/>
</clipPath>
</defs>
</svg>
